<svg xmlns="http://www.w3.org/2000/svg" xmlns:xlink="http://www.w3.org/1999/xlink" width="300" zoomAndPan="magnify" viewBox="0 0 224.87999 74.999997" height="100" preserveAspectRatio="xMidYMid meet" version="1.0"><defs><g/><clipPath id="a6e1e2cc8f"><path d="M 0 5.347656 L 61.46875 5.347656 L 61.46875 73.5625 L 0 73.5625 Z M 0 5.347656 " clip-rule="nonzero"/></clipPath></defs><path fill="#ff0000" d="M 34.230469 46.152344 L 9.90625 59.046875 C 7.898438 60.117188 5.304688 58.875 5.304688 56.839844 L 5.304688 31.050781 C 5.304688 29.027344 7.898438 27.773438 9.90625 28.84375 L 34.230469 41.738281 C 36.136719 42.761719 36.136719 45.140625 34.230469 46.152344 Z M 34.230469 46.152344 " fill-opacity="1" fill-rule="nonzero"/><g clip-path="url(#a6e1e2cc8f)"><path fill="#000000" d="M 61.269531 44.316406 C 61.285156 47.152344 60.460938 49.945312 58.878906 52.394531 C 57.195312 55 54.6875 57.167969 51.613281 58.675781 L 20.835938 73.738281 L 20.835938 63.765625 L 46.625 51.140625 C 48.105469 50.414062 49.273438 49.417969 50.074219 48.175781 C 50.8125 47.023438 51.210938 45.699219 51.199219 44.34375 C 51.199219 42.992188 50.785156 41.664062 50.03125 40.511719 C 49.21875 39.285156 48.050781 38.304688 46.554688 37.578125 L 0.0078125 15.265625 L 0.0078125 5.347656 L 51.46875 30.023438 C 54.5625 31.507812 57.097656 33.660156 58.804688 36.25 C 60.402344 38.703125 61.257812 41.480469 61.269531 44.316406 Z M 61.269531 44.316406 " fill-opacity="1" fill-rule="nonzero"/></g><g fill="#000000" fill-opacity="1"><g transform="translate(66.923704, 56.006691)"><g><path d="M 17.4375 0 L 13.546875 -12.921875 L 7.671875 -12.921875 L 7.671875 0 L 3.109375 0 L 3.109375 -33.40625 L 13.640625 -33.40625 C 15.941406 -33.40625 17.675781 -32.992188 18.84375 -32.171875 C 20.007812 -31.347656 20.769531 -30.222656 21.125 -28.796875 C 21.476562 -27.367188 21.65625 -25.492188 21.65625 -23.171875 C 21.65625 -20.734375 21.40625 -18.726562 20.90625 -17.15625 C 20.40625 -15.59375 19.394531 -14.472656 17.875 -13.796875 L 22.234375 0 Z M 12.484375 -16.84375 C 13.835938 -16.84375 14.835938 -17.050781 15.484375 -17.46875 C 16.140625 -17.894531 16.5625 -18.535156 16.75 -19.390625 C 16.945312 -20.253906 17.046875 -21.515625 17.046875 -23.171875 C 17.046875 -24.847656 16.957031 -26.109375 16.78125 -26.953125 C 16.601562 -27.796875 16.195312 -28.414062 15.5625 -28.8125 C 14.9375 -29.21875 13.925781 -29.421875 12.53125 -29.421875 L 7.671875 -29.421875 L 7.671875 -16.84375 Z M 12.484375 -16.84375 "/></g></g></g><g fill="#000000" fill-opacity="1"><g transform="translate(93.243291, 56.006691)"><g><path d="M 3.203125 0 L 3.203125 -33.40625 L 7.8125 -33.40625 L 7.8125 0 Z M 3.203125 0 "/></g></g></g><g fill="#000000" fill-opacity="1"><g transform="translate(106.69454, 56.006691)"><g><path d="M 3.109375 -33.40625 L 13.359375 -33.40625 C 15.617188 -33.40625 17.320312 -32.96875 18.46875 -32.09375 C 19.625 -31.21875 20.378906 -30.035156 20.734375 -28.546875 C 21.085938 -27.066406 21.265625 -25.109375 21.265625 -22.671875 C 21.265625 -20.316406 21.085938 -18.394531 20.734375 -16.90625 C 20.378906 -15.414062 19.625 -14.21875 18.46875 -13.3125 C 17.320312 -12.40625 15.601562 -11.953125 13.3125 -11.953125 L 7.671875 -11.953125 L 7.671875 0 L 3.109375 0 Z M 12.140625 -15.921875 C 13.503906 -15.921875 14.507812 -16.140625 15.15625 -16.578125 C 15.800781 -17.015625 16.21875 -17.6875 16.40625 -18.59375 C 16.601562 -19.5 16.703125 -20.859375 16.703125 -22.671875 C 16.703125 -24.523438 16.601562 -25.894531 16.40625 -26.78125 C 16.21875 -27.675781 15.804688 -28.335938 15.171875 -28.765625 C 14.546875 -29.203125 13.535156 -29.421875 12.140625 -29.421875 L 7.671875 -29.421875 L 7.671875 -15.921875 Z M 12.140625 -15.921875 "/></g></g></g><g fill="#000000" fill-opacity="1"><g transform="translate(131.751576, 56.006691)"><g><path d="M 17.4375 0 L 13.546875 -12.921875 L 7.671875 -12.921875 L 7.671875 0 L 3.109375 0 L 3.109375 -33.40625 L 13.640625 -33.40625 C 15.941406 -33.40625 17.675781 -32.992188 18.84375 -32.171875 C 20.007812 -31.347656 20.769531 -30.222656 21.125 -28.796875 C 21.476562 -27.367188 21.65625 -25.492188 21.65625 -23.171875 C 21.65625 -20.734375 21.40625 -18.726562 20.90625 -17.15625 C 20.40625 -15.59375 19.394531 -14.472656 17.875 -13.796875 L 22.234375 0 Z M 12.484375 -16.84375 C 13.835938 -16.84375 14.835938 -17.050781 15.484375 -17.46875 C 16.140625 -17.894531 16.5625 -18.535156 16.75 -19.390625 C 16.945312 -20.253906 17.046875 -21.515625 17.046875 -23.171875 C 17.046875 -24.847656 16.957031 -26.109375 16.78125 -26.953125 C 16.601562 -27.796875 16.195312 -28.414062 15.5625 -28.8125 C 14.9375 -29.21875 13.925781 -29.421875 12.53125 -29.421875 L 7.671875 -29.421875 L 7.671875 -16.84375 Z M 12.484375 -16.84375 "/></g></g></g><g fill="#000000" fill-opacity="1"><g transform="translate(158.071165, 56.006691)"><g><path d="M 3.109375 0 L 3.109375 -33.40625 L 19.03125 -33.40625 L 19.03125 -29.421875 L 7.671875 -29.421875 L 7.671875 -18.890625 L 17.53125 -18.890625 L 17.53125 -14.90625 L 7.671875 -14.90625 L 7.671875 -3.984375 L 19.03125 -3.984375 L 19.03125 0 Z M 3.109375 0 "/></g></g></g><g fill="#000000" fill-opacity="1"><g transform="translate(181.380048, 56.006691)"><g><path d="M 3.109375 0 L 3.109375 -33.40625 L 19.03125 -33.40625 L 19.03125 -29.421875 L 7.671875 -29.421875 L 7.671875 -18.890625 L 17.53125 -18.890625 L 17.53125 -14.90625 L 7.671875 -14.90625 L 7.671875 -3.984375 L 19.03125 -3.984375 L 19.03125 0 Z M 3.109375 0 "/></g></g></g><g fill="#000000" fill-opacity="1"><g transform="translate(204.688931, 56.006691)"><g><path d="M 3.109375 0 L 3.109375 -33.40625 L 7.71875 -33.40625 L 7.71875 -4.078125 L 17.78125 -4.078125 L 17.78125 0 Z M 3.109375 0 "/></g></g></g></svg>